<svg width="109" height="46" viewBox="0 0 109 46" fill="none" xmlns="http://www.w3.org/2000/svg">
<path d="M12.1953 40.0254V1.79297H7.83008V0.00585938H26.9609V1.79297H22.332V30.7676C22.332 35.3574 21.0527 39.0391 18.4941 41.8125C15.9355 44.5859 12.5566 45.9727 8.35742 45.9727C6.15039 45.9727 4.34375 45.3672 2.9375 44.1562C1.55078 42.9648 0.857422 41.4414 0.857422 39.5859C0.857422 38.2969 1.25781 37.2227 2.05859 36.3633C2.85938 35.4844 3.83594 35.0449 4.98828 35.0449C6.23828 35.0449 7.23438 35.4355 7.97656 36.2168C8.71875 36.998 9.08984 38.043 9.08984 39.3516C9.08984 39.9961 8.9043 40.6895 8.5332 41.4316C8.18164 42.1934 8.00586 42.6816 8.00586 42.8965C8.00586 43.1699 8.13281 43.3945 8.38672 43.5703C8.64062 43.7656 8.97266 43.8633 9.38281 43.8633C10.2227 43.8633 10.8965 43.5117 11.4043 42.8086C11.9316 42.1055 12.1953 41.1777 12.1953 40.0254ZM46.2969 35.5137C45.1055 36.9395 43.7969 37.9746 42.3711 38.6191C40.9648 39.2637 39.2754 39.5859 37.3027 39.5859C35.291 39.5859 33.7383 39.0781 32.6445 38.0625C31.5508 37.0469 31.0039 35.6016 31.0039 33.7266C31.0039 31.1875 32.3613 29.166 35.0762 27.6621C37.791 26.1387 41.4727 25.377 46.1211 25.377V19.6934C46.1211 18.3848 45.8379 17.5156 45.2715 17.0859C44.7246 16.6562 43.6699 16.4414 42.1074 16.4414C41.0918 16.4414 40.3203 16.5586 39.793 16.793C39.2852 17.0273 39.0312 17.3691 39.0312 17.8184C39.0312 17.9355 39.207 18.3262 39.5586 18.9902C39.9297 19.6348 40.1152 20.2891 40.1152 20.9531C40.1152 22.0859 39.7637 22.9551 39.0605 23.5605C38.377 24.166 37.3906 24.4688 36.1016 24.4688C34.9688 24.4688 34.0898 24.1562 33.4648 23.5312C32.8594 22.9062 32.5566 21.998 32.5566 20.8066C32.5566 18.9316 33.5234 17.4766 35.457 16.4414C37.3906 15.4062 40.125 14.8887 43.6602 14.8887C45.2227 14.8887 46.6387 15.0059 47.9082 15.2402C49.1777 15.4551 50.2227 15.7773 51.043 16.207C51.9609 16.6758 52.5957 17.252 52.9473 17.9355C53.3184 18.6191 53.5039 19.8594 53.5039 21.6562V33.7852C53.5039 34.4883 53.6504 35.0059 53.9434 35.3379C54.2559 35.6504 54.7344 35.8066 55.3789 35.8066C55.6523 35.8066 55.9355 35.7188 56.2285 35.543C56.541 35.3672 56.7559 35.2793 56.873 35.2793C57.0293 35.2793 57.166 35.3379 57.2832 35.4551C57.4004 35.5723 57.459 35.7188 57.459 35.8945C57.459 36.6367 56.8828 37.4375 55.7305 38.2969C54.5977 39.1562 53.2988 39.5859 51.834 39.5859C50.5254 39.5859 49.3828 39.2246 48.4062 38.502C47.4297 37.7793 46.7266 36.7832 46.2969 35.5137ZM46.1211 26.9883H45.418C42.9961 26.9883 41.2969 27.3398 40.3203 28.043C39.3438 28.7266 38.8555 29.8984 38.8555 31.5586C38.8555 33.2578 39.1094 34.4785 39.6172 35.2207C40.1445 35.9434 40.9941 36.3047 42.166 36.3047C43.3379 36.3047 44.2852 35.9141 45.0078 35.1328C45.75 34.3516 46.1211 33.3164 46.1211 32.0273V26.9883ZM59.627 39V37.7402L72.8398 17.4082H68.7676C67.3809 17.4082 66.2285 17.916 65.3105 18.9316C64.4121 19.9277 63.4258 21.8809 62.3516 24.791H60.7109L61.0039 15.5918H82.0098V17.0273L68.8848 37.2129H72.957C74.6367 37.2129 76.0234 36.6367 77.1172 35.4844C78.2109 34.332 79.3633 32.1641 80.5742 28.9805H82.1855L81.7754 39H59.627ZM86.0527 39V37.7402L99.2656 17.4082H95.1934C93.8066 17.4082 92.6543 17.916 91.7363 18.9316C90.8379 19.9277 89.8516 21.8809 88.7773 24.791H87.1367L87.4297 15.5918H108.436V17.0273L95.3105 37.2129H99.3828C101.062 37.2129 102.449 36.6367 103.543 35.4844C104.637 34.332 105.789 32.1641 107 28.9805H108.611L108.201 39H86.0527Z" fill="url(#paint0_linear_52_42)" fill-opacity="0.68"/>
<defs>
<linearGradient id="paint0_linear_52_42" x1="13.5" y1="53" x2="120" y2="3" gradientUnits="userSpaceOnUse">
<stop stop-color="#FFDF5F"/>
<stop offset="1" stop-color="#E3C340"/>
<stop offset="1" stop-color="#FFD52F"/>
</linearGradient>
</defs>
</svg>
