<svg width="386" height="63" viewBox="0 0 386 63" fill="none" xmlns="http://www.w3.org/2000/svg">
<path d="M60.5 20.5H46V61H60.5V20.5Z" fill="white"/>
<path d="M83 1.5H69.5V61H83V1.5Z" fill="white"/>
<path d="M186 20H171V61H186V20Z" fill="white"/>
<path d="M298 20H284V60.5H298V20Z" fill="white"/>
<path d="M342 20H328V61H342V20Z" fill="white"/>
<path d="M100.5 38H105V61H100.5C96.6667 61.1667 89 59.2 89 50C89 40.8 96.6667 38.1667 100.5 38Z" fill="white"/>
<path d="M360.5 38H365V61H360.5C356.667 61.1667 349 59.2 349 50C349 40.8 356.667 38.1667 360.5 38Z" fill="white"/>
<path d="M107 26.5C107 30.6421 103.642 34 99.5 34C95.3579 34 92 30.6421 92 26.5C92 22.3579 95.3579 19 99.5 19C103.642 19 107 22.3579 107 26.5Z" fill="white"/>
<path d="M61 8.5C61 12.6421 57.6421 16 53.5 16C49.3579 16 46 12.6421 46 8.5C46 4.35786 49.3579 1 53.5 1C57.6421 1 61 4.35786 61 8.5Z" fill="white"/>
<path d="M168 27.5C168 31.6421 164.642 35 160.5 35C156.358 35 153 31.6421 153 27.5C153 23.3579 156.358 20 160.5 20C164.642 20 168 23.3579 168 27.5Z" fill="white"/>
<path d="M366 26.5C366 30.6421 362.642 34 358.5 34C354.358 34 351 30.6421 351 26.5C351 22.3579 354.358 19 358.5 19C362.642 19 366 22.3579 366 26.5Z" fill="white"/>
<path d="M112 25L107 20.5H115.5C120.7 20.9 124.667 26 126 28.5V61H112V25Z" fill="white"/>
<path d="M216 24.5L211 20H219.5C224.7 20.4 228.667 25.5 230 28V60.5H216V24.5Z" fill="white"/>
<path d="M307 24.5L302 20H310.5C315.7 20.4 319.667 25.5 321 28V60.5H307V24.5Z" fill="white"/>
<path d="M371 25L366 20.5H374.5C379.7 20.9 383.667 26 385 28.5V61H371V25Z" fill="white"/>
<path d="M133.5 61V20H153L148 25V61H133.5Z" fill="white"/>
<path d="M254 19.2834C243.791 20.9549 236 29.8177 236 40.5C236 51.1823 243.791 60.0451 254 61.7165V19.2834Z" fill="white"/>
<path d="M261 61.7165C271.209 60.0451 279 51.1823 279 40.5C279 29.8177 271.209 20.9549 261 19.2834V61.7165Z" fill="white"/>
<path d="M194 24.5L189.5 20.5H203.5C205.5 20.5 207.333 23.1667 208 24.5V61H194V24.5Z" fill="white"/>
<path d="M340 2L328 14C330.667 15.3333 336.8 17 340 13C343.2 9 341.333 4 340 2Z" fill="white"/>
<path d="M15.8571 2H1V61H15.8571V2Z" fill="white"/>
<path d="M39 2H23.8571L39 17.3173V2Z" fill="white"/>
<path d="M16.1429 29.2308H30.4286V43.4135L16.1429 29.2308Z" fill="white"/>
<path d="M60.5 20.5H46V61H60.5V20.5Z" stroke="transparent"/>
<path d="M83 1.5H69.5V61H83V1.5Z" stroke="transparent"/>
<path d="M186 20H171V61H186V20Z" stroke="transparent"/>
<path d="M298 20H284V60.5H298V20Z" stroke="transparent"/>
<path d="M342 20H328V61H342V20Z" stroke="transparent"/>
<path d="M100.5 38H105V61H100.5C96.6667 61.1667 89 59.2 89 50C89 40.8 96.6667 38.1667 100.5 38Z" stroke="transparent"/>
<path d="M360.5 38H365V61H360.5C356.667 61.1667 349 59.2 349 50C349 40.8 356.667 38.1667 360.5 38Z" stroke="transparent"/>
<path d="M107 26.5C107 30.6421 103.642 34 99.5 34C95.3579 34 92 30.6421 92 26.5C92 22.3579 95.3579 19 99.5 19C103.642 19 107 22.3579 107 26.5Z" stroke="transparent"/>
<path d="M61 8.5C61 12.6421 57.6421 16 53.5 16C49.3579 16 46 12.6421 46 8.5C46 4.35786 49.3579 1 53.5 1C57.6421 1 61 4.35786 61 8.5Z" stroke="transparent"/>
<path d="M168 27.5C168 31.6421 164.642 35 160.5 35C156.358 35 153 31.6421 153 27.5C153 23.3579 156.358 20 160.5 20C164.642 20 168 23.3579 168 27.5Z" stroke="transparent"/>
<path d="M366 26.5C366 30.6421 362.642 34 358.5 34C354.358 34 351 30.6421 351 26.5C351 22.3579 354.358 19 358.5 19C362.642 19 366 22.3579 366 26.5Z" stroke="transparent"/>
<path d="M112 25L107 20.5H115.5C120.7 20.9 124.667 26 126 28.5V61H112V25Z" stroke="transparent"/>
<path d="M216 24.5L211 20H219.5C224.7 20.4 228.667 25.5 230 28V60.5H216V24.5Z" stroke="transparent"/>
<path d="M307 24.5L302 20H310.5C315.7 20.4 319.667 25.5 321 28V60.5H307V24.5Z" stroke="transparent"/>
<path d="M371 25L366 20.5H374.5C379.7 20.9 383.667 26 385 28.5V61H371V25Z" stroke="transparent"/>
<path d="M133.5 61V20H153L148 25V61H133.5Z" stroke="transparent"/>
<path d="M254 19.2834C243.791 20.9549 236 29.8177 236 40.5C236 51.1823 243.791 60.0451 254 61.7165V19.2834Z" stroke="transparent"/>
<path d="M261 61.7165C271.209 60.0451 279 51.1823 279 40.5C279 29.8177 271.209 20.9549 261 19.2834V61.7165Z" stroke="transparent"/>
<path d="M194 24.5L189.5 20.5H203.5C205.5 20.5 207.333 23.1667 208 24.5V61H194V24.5Z" stroke="transparent"/>
<path d="M340 2L328 14C330.667 15.3333 336.8 17 340 13C343.2 9 341.333 4 340 2Z" stroke="transparent"/>
<path d="M15.8571 2H1V61H15.8571V2Z" stroke="transparent"/>
<path d="M39 2H23.8571L39 17.3173V2Z" stroke="transparent"/>
<path d="M16.1429 29.2308H30.4286V43.4135L16.1429 29.2308Z" stroke="transparent"/>
</svg>
